<svg width="25" height="25" viewBox="0 0 25 25" fill="none" xmlns="http://www.w3.org/2000/svg">
<mask id="mask0_1_521" style="mask-type:alpha" maskUnits="userSpaceOnUse" x="0" y="0" width="25" height="25">
<g clip-path="url(#clip0_1_521)">
<path d="M2.35901 15.7308L1.87183 14.7436L5.25644 13.0769C5.53493 12.9448 5.76981 12.7359 5.93338 12.4746C6.09694 12.2134 6.18234 11.9108 6.17952 11.6026V9.3077C6.18051 9.01959 6.12436 8.73415 6.01433 8.46787C5.9043 8.2016 5.74257 7.95979 5.53849 7.75642L3.84618 6.05129L4.62824 5.28206L6.32054 6.97437C6.93448 7.59606 7.27977 8.43396 7.28208 9.3077V11.6026C7.29186 12.1228 7.15209 12.635 6.87938 13.0781C6.60666 13.5213 6.21247 13.8769 5.74362 14.1026L2.35901 15.7308Z" fill="#293E40" stroke="#293E40" stroke-width="0.897436" stroke-miterlimit="10"/>
<path d="M14.1026 20.282C13.5301 20.2924 12.9768 20.0757 12.5636 19.6793C12.1504 19.2829 11.9109 18.7391 11.8974 18.1667V17.4615C11.9014 16.9972 11.7478 16.5452 11.4615 16.1795L10.7692 15.2949C10.4411 14.8681 10.261 14.346 10.2564 13.8077C10.2564 13.1276 10.5266 12.4755 11.0074 11.9946C11.4883 11.5137 12.1405 11.2436 12.8205 11.2436H15.3846C15.7348 11.2436 16.0707 11.1045 16.3184 10.8568C16.566 10.6092 16.7051 10.2733 16.7051 9.92307C16.7051 9.57285 16.566 9.23698 16.3184 8.98933C16.0707 8.74169 15.7348 8.60256 15.3846 8.60256H13.3205C12.6852 8.61315 12.071 8.37511 11.6087 7.93921C11.1465 7.5033 10.8728 6.90403 10.8462 6.26923C10.8478 5.94716 10.9133 5.62862 11.0389 5.33203C11.1645 5.03545 11.3476 4.76671 11.5777 4.54137C11.8078 4.31602 12.0803 4.13855 12.3795 4.01922C12.6786 3.89989 12.9985 3.84106 13.3205 3.84615H15.8846C16.0288 3.84918 16.1722 3.82355 16.3065 3.77073C16.4407 3.71791 16.5632 3.63896 16.6667 3.53846L18.0128 2.25641L18.7949 3L17.5128 4.28205C17.3043 4.4997 17.0534 4.67229 16.7755 4.78916C16.4977 4.90603 16.1988 4.96469 15.8974 4.96154H13.3333C12.9831 4.96154 12.6472 5.10066 12.3996 5.34831C12.1519 5.59595 12.0128 5.93183 12.0128 6.28205C12.0128 6.63227 12.1519 6.96815 12.3996 7.21579C12.6472 7.46344 12.9831 7.60256 13.3333 7.60256H15.5385C16.1691 7.60898 16.7727 7.85975 17.2222 8.3021C17.6717 8.74445 17.9322 9.3439 17.9487 9.97436C17.9319 10.6159 17.6626 11.225 17.1993 11.6691C16.7359 12.1132 16.1161 12.3565 15.4744 12.3462H12.9103C12.7149 12.3428 12.5209 12.3779 12.3392 12.4495C12.1574 12.5211 11.9916 12.6278 11.8511 12.7635C11.7106 12.8993 11.5982 13.0613 11.5204 13.2405C11.4426 13.4196 11.4008 13.6124 11.3974 13.8077C11.4039 14.1238 11.5117 14.4294 11.7051 14.6795L12.3846 15.5513C12.8149 16.0952 13.0497 16.768 13.0513 17.4615V18.1667C13.0545 18.4457 13.1659 18.7125 13.362 18.911C13.5581 19.1095 13.8236 19.2241 14.1026 19.2308C14.2989 19.2276 14.4919 19.1793 14.6667 19.0897L17.4103 17.5C17.5724 17.4094 17.7077 17.2774 17.8023 17.1175C17.8969 16.9576 17.9474 16.7755 17.9487 16.5897V14.4615C17.9471 14.2111 18.0056 13.9639 18.1194 13.7408C18.2332 13.5177 18.3989 13.3252 18.6026 13.1795L20.7949 11.6026C21.0853 11.3928 21.4368 11.2846 21.7949 11.2949H23.9872V12.3462H21.7949C21.6734 12.3428 21.5549 12.3839 21.4615 12.4615L19.3077 14.1026C19.2421 14.1523 19.1884 14.2162 19.1507 14.2894C19.113 14.3626 19.0922 14.4433 19.0897 14.5256V16.641C19.0858 17.0108 18.9856 17.3731 18.799 17.6923C18.6124 18.0116 18.3459 18.2767 18.0256 18.4615L15.282 20.0385C14.9193 20.2282 14.5108 20.3126 14.1026 20.282Z" fill="#293E40" stroke="#293E40" stroke-width="0.897436" stroke-miterlimit="10"/>
<path d="M12.5 24.0385C18.8725 24.0385 24.0385 18.8725 24.0385 12.5C24.0385 6.12749 18.8725 0.96154 12.5 0.96154C6.12749 0.96154 0.961548 6.12749 0.961548 12.5C0.961548 18.8725 6.12749 24.0385 12.5 24.0385Z" stroke="#293E40" stroke-width="1.92308" stroke-linecap="round" stroke-linejoin="round"/>
</g>
</mask>
<g mask="url(#mask0_1_521)">
<rect width="25" height="25" fill="#293E40"/>
</g>
<defs>
<clipPath id="clip0_1_521">
<rect width="25" height="25" fill="white"/>
</clipPath>
</defs>
</svg>
