<svg width="117" height="41" viewBox="0 0 117 41" fill="none" xmlns="http://www.w3.org/2000/svg">
<rect width="116.41" height="40" transform="translate(0.589966 0.5)" fill="#293E40"/>
<path d="M28.1979 19C28.0964 18.6892 27.9625 18.4106 27.7963 18.1644C27.6332 17.9151 27.4377 17.7028 27.21 17.5273C26.9853 17.3519 26.7299 17.218 26.4437 17.1257C26.1574 17.0334 25.8435 16.9872 25.5019 16.9872C24.9418 16.9872 24.4324 17.1319 23.9738 17.4212C23.5153 17.7105 23.1506 18.1367 22.8797 18.6999C22.6089 19.2631 22.4735 19.9541 22.4735 20.7727C22.4735 21.5914 22.6104 22.2823 22.8844 22.8455C23.1583 23.4087 23.5291 23.835 23.9969 24.1243C24.4647 24.4136 24.991 24.5582 25.5758 24.5582C26.1174 24.5582 26.5945 24.4428 27.0069 24.212C27.4224 23.9781 27.7455 23.6488 27.9763 23.2241C28.2102 22.7963 28.3272 22.2931 28.3272 21.7145L28.678 21.7884H25.8343V20.7727H29.4351V21.7884C29.4351 22.567 29.2689 23.2441 28.9366 23.8196C28.6072 24.3951 28.1518 24.8414 27.5701 25.1584C26.9915 25.4723 26.3267 25.6293 25.5758 25.6293C24.7386 25.6293 24.0031 25.4323 23.3691 25.0384C22.7382 24.6444 22.2457 24.0843 21.8918 23.358C21.541 22.6316 21.3655 21.7699 21.3655 20.7727C21.3655 20.0249 21.4656 19.3524 21.6656 18.7553C21.8687 18.1552 22.155 17.6443 22.5243 17.2227C22.8936 16.801 23.3306 16.4779 23.8353 16.2532C24.3401 16.0285 24.8956 15.9162 25.5019 15.9162C26.0005 15.9162 26.4652 15.9916 26.8961 16.1424C27.33 16.2901 27.7163 16.5009 28.0548 16.7749C28.3964 17.0457 28.6811 17.3704 28.9089 17.7489C29.1366 18.1244 29.2936 18.5414 29.3797 19H28.1979ZM34.2213 25.6477C33.538 25.6477 32.9487 25.4969 32.4532 25.1953C31.9607 24.8906 31.5806 24.4659 31.3129 23.9212C31.0482 23.3733 30.9159 22.7363 30.9159 22.0099C30.9159 21.2836 31.0482 20.6435 31.3129 20.0895C31.5806 19.5324 31.953 19.0985 32.4301 18.7876C32.9102 18.4737 33.4703 18.3168 34.1105 18.3168C34.4798 18.3168 34.8445 18.3783 35.2046 18.5014C35.5647 18.6245 35.8924 18.8246 36.1879 19.1016C36.4833 19.3755 36.7188 19.7386 36.8942 20.1911C37.0696 20.6435 37.1573 21.2005 37.1573 21.8622V22.3239H31.6914V21.3821H36.0494C36.0494 20.982 35.9694 20.625 35.8093 20.3111C35.6524 19.9972 35.4277 19.7494 35.1353 19.5678C34.846 19.3862 34.5044 19.2955 34.1105 19.2955C33.6765 19.2955 33.3011 19.4032 32.9841 19.6186C32.6701 19.831 32.4285 20.108 32.2593 20.4496C32.09 20.7912 32.0054 21.1574 32.0054 21.5483V22.1761C32.0054 22.7116 32.0977 23.1656 32.2823 23.538C32.4701 23.9073 32.7301 24.1889 33.0625 24.3828C33.3949 24.5736 33.7812 24.669 34.2213 24.669C34.5075 24.669 34.766 24.629 34.9968 24.549C35.2307 24.4659 35.4323 24.3428 35.6016 24.1797C35.7709 24.0135 35.9017 23.8073 35.994 23.5611L37.0466 23.8565C36.9358 24.2135 36.7496 24.5275 36.488 24.7983C36.2264 25.0661 35.9032 25.2753 35.5185 25.4261C35.1338 25.5739 34.7014 25.6477 34.2213 25.6477ZM41.8985 18.4091V19.3324H38.2238V18.4091H41.8985ZM39.2948 16.7102H40.3843V23.4688C40.3843 23.7765 40.4289 24.0073 40.5181 24.1612C40.6105 24.312 40.7274 24.4136 40.869 24.4659C41.0136 24.5152 41.166 24.5398 41.326 24.5398C41.4461 24.5398 41.5445 24.5336 41.6215 24.5213C41.6984 24.5059 41.76 24.4936 41.8061 24.4844L42.0277 25.4631C41.9539 25.4908 41.8508 25.5185 41.7184 25.5462C41.5861 25.5769 41.4184 25.5923 41.2152 25.5923C40.9075 25.5923 40.6059 25.5262 40.3104 25.3938C40.018 25.2615 39.7749 25.0599 39.581 24.7891C39.3902 24.5182 39.2948 24.1766 39.2948 23.7642V16.7102ZM52.5118 18.4091C52.4564 17.9413 52.2317 17.5781 51.8377 17.3196C51.4438 17.0611 50.9606 16.9318 50.3882 16.9318C49.9696 16.9318 49.6034 16.9995 49.2895 17.1349C48.9786 17.2704 48.7355 17.4566 48.56 17.6935C48.3877 17.9305 48.3015 18.1998 48.3015 18.5014C48.3015 18.7538 48.3615 18.9708 48.4816 19.1523C48.6047 19.3308 48.7616 19.4801 48.9524 19.6001C49.1433 19.7171 49.3433 19.814 49.5526 19.891C49.7619 19.9648 49.9542 20.0249 50.1296 20.071L51.0899 20.3295C51.3361 20.3942 51.61 20.4834 51.9116 20.5973C52.2163 20.7112 52.5071 20.8666 52.7841 21.0636C53.0642 21.2575 53.295 21.5067 53.4766 21.8114C53.6582 22.1161 53.749 22.4901 53.749 22.9332C53.749 23.4441 53.6151 23.9058 53.3473 24.3182C53.0827 24.7306 52.6949 25.0584 52.184 25.3015C51.6762 25.5446 51.0591 25.6662 50.3328 25.6662C49.6557 25.6662 49.0694 25.5569 48.5739 25.3384C48.0815 25.1199 47.6937 24.8152 47.4105 24.4244C47.1305 24.0335 46.972 23.5795 46.935 23.0625H48.1169C48.1476 23.4195 48.2677 23.715 48.477 23.9489C48.6893 24.1797 48.9571 24.352 49.2802 24.4659C49.6064 24.5767 49.9573 24.6321 50.3328 24.6321C50.7698 24.6321 51.1622 24.5613 51.51 24.4197C51.8578 24.2751 52.1332 24.075 52.3363 23.8196C52.5395 23.5611 52.641 23.2595 52.641 22.9148C52.641 22.6009 52.5533 22.3454 52.3779 22.1484C52.2024 21.9515 51.9716 21.7914 51.6854 21.6683C51.3992 21.5452 51.0899 21.4375 50.7575 21.3452L49.5941 21.0128C48.8555 20.8004 48.2707 20.4973 47.8399 20.1033C47.409 19.7094 47.1936 19.1939 47.1936 18.5568C47.1936 18.0275 47.3367 17.5658 47.6229 17.1719C47.9122 16.7749 48.3 16.4671 48.7863 16.2486C49.2756 16.027 49.8219 15.9162 50.4251 15.9162C51.0345 15.9162 51.5761 16.0254 52.0501 16.244C52.5241 16.4594 52.8995 16.7549 53.1765 17.1303C53.4566 17.5058 53.6043 17.9321 53.6197 18.4091H52.5118ZM58.5674 18.4091V19.3324H54.8927V18.4091H58.5674ZM55.9637 16.7102H57.0532V23.4688C57.0532 23.7765 57.0978 24.0073 57.1871 24.1612C57.2794 24.312 57.3964 24.4136 57.5379 24.4659C57.6826 24.5152 57.8349 24.5398 57.995 24.5398C58.115 24.5398 58.2135 24.5336 58.2904 24.5213C58.3674 24.5059 58.4289 24.4936 58.4751 24.4844L58.6967 25.4631C58.6228 25.4908 58.5197 25.5185 58.3874 25.5462C58.255 25.5769 58.0873 25.5923 57.8842 25.5923C57.5764 25.5923 57.2748 25.5262 56.9793 25.3938C56.687 25.2615 56.4438 25.0599 56.2499 24.7891C56.0591 24.5182 55.9637 24.1766 55.9637 23.7642V16.7102ZM62.2929 25.6662C61.8436 25.6662 61.4358 25.5816 61.0695 25.4123C60.7033 25.2399 60.4125 24.9922 60.197 24.669C59.9816 24.3428 59.8739 23.9489 59.8739 23.4872C59.8739 23.081 59.9539 22.7517 60.1139 22.4993C60.274 22.2438 60.4879 22.0438 60.7556 21.8991C61.0234 21.7545 61.3188 21.6468 61.642 21.576C61.9682 21.5021 62.296 21.4437 62.6253 21.4006C63.0562 21.3452 63.4055 21.3036 63.6732 21.2759C63.9441 21.2451 64.141 21.1944 64.2641 21.1236C64.3903 21.0528 64.4534 20.9297 64.4534 20.7543V20.7173C64.4534 20.2618 64.3288 19.9079 64.0795 19.6555C63.8333 19.4032 63.4593 19.277 62.9577 19.277C62.4376 19.277 62.0298 19.3909 61.7343 19.6186C61.4389 19.8464 61.2311 20.0895 61.1111 20.348L60.077 19.9787C60.2617 19.5478 60.5079 19.2124 60.8156 18.9723C61.1265 18.7292 61.465 18.5599 61.8313 18.4645C62.2006 18.366 62.5637 18.3168 62.9208 18.3168C63.1485 18.3168 63.4101 18.3445 63.7056 18.3999C64.0041 18.4522 64.2918 18.5614 64.5688 18.7276C64.8489 18.8938 65.0813 19.1446 65.2659 19.4801C65.4506 19.8156 65.5429 20.2649 65.5429 20.8281V25.5H64.4534V24.5398H64.398C64.3242 24.6937 64.2011 24.8583 64.0287 25.0337C63.8564 25.2092 63.6271 25.3584 63.3409 25.4815C63.0546 25.6046 62.7053 25.6662 62.2929 25.6662ZM62.4591 24.6875C62.89 24.6875 63.2531 24.6029 63.5486 24.4336C63.8471 24.2643 64.0718 24.0458 64.2226 23.7781C64.3765 23.5103 64.4534 23.2287 64.4534 22.9332V21.9361C64.4073 21.9915 64.3057 22.0423 64.1487 22.0884C63.9949 22.1315 63.8164 22.17 63.6132 22.2038C63.4132 22.2346 63.2177 22.2623 63.0269 22.2869C62.8392 22.3085 62.6869 22.3269 62.5699 22.3423C62.2868 22.3793 62.0221 22.4393 61.7759 22.5224C61.5327 22.6024 61.3358 22.724 61.185 22.8871C61.0372 23.0471 60.9634 23.2656 60.9634 23.5426C60.9634 23.9212 61.1034 24.2074 61.3835 24.4013C61.6666 24.5921 62.0252 24.6875 62.4591 24.6875ZM67.5315 25.5V18.4091H68.584V19.4801H68.6579C68.7871 19.1293 69.021 18.8446 69.3596 18.6261C69.6981 18.4076 70.0798 18.2983 70.5045 18.2983C70.5845 18.2983 70.6845 18.2998 70.8045 18.3029C70.9246 18.306 71.0154 18.3106 71.0769 18.3168V19.4247C71.04 19.4155 70.9553 19.4016 70.823 19.3832C70.6937 19.3616 70.5568 19.3509 70.4121 19.3509C70.0674 19.3509 69.7597 19.4232 69.4888 19.5678C69.2211 19.7094 69.0087 19.9064 68.8518 20.1587C68.6979 20.408 68.6209 20.6927 68.6209 21.0128V25.5H67.5315ZM75.8965 18.4091V19.3324H72.2218V18.4091H75.8965ZM73.2928 16.7102H74.3823V23.4688C74.3823 23.7765 74.4269 24.0073 74.5162 24.1612C74.6085 24.312 74.7255 24.4136 74.867 24.4659C75.0117 24.5152 75.164 24.5398 75.3241 24.5398C75.4441 24.5398 75.5426 24.5336 75.6195 24.5213C75.6965 24.5059 75.758 24.4936 75.8042 24.4844L76.0258 25.4631C75.9519 25.4908 75.8488 25.5185 75.7165 25.5462C75.5841 25.5769 75.4164 25.5923 75.2133 25.5923C74.9055 25.5923 74.6039 25.5262 74.3084 25.3938C74.0161 25.2615 73.7729 25.0599 73.579 24.7891C73.3882 24.5182 73.2928 24.1766 73.2928 23.7642V16.7102ZM80.4322 25.6477C79.749 25.6477 79.1596 25.4969 78.6641 25.1953C78.1717 24.8906 77.7916 24.4659 77.5238 23.9212C77.2591 23.3733 77.1268 22.7363 77.1268 22.0099C77.1268 21.2836 77.2591 20.6435 77.5238 20.0895C77.7916 19.5324 78.164 19.0985 78.641 18.7876C79.1211 18.4737 79.6813 18.3168 80.3214 18.3168C80.6907 18.3168 81.0554 18.3783 81.4155 18.5014C81.7756 18.6245 82.1034 18.8246 82.3988 19.1016C82.6943 19.3755 82.9297 19.7386 83.1051 20.1911C83.2806 20.6435 83.3683 21.2005 83.3683 21.8622V22.3239H77.9024V21.3821H82.2603C82.2603 20.982 82.1803 20.625 82.0203 20.3111C81.8633 19.9972 81.6386 19.7494 81.3463 19.5678C81.057 19.3862 80.7154 19.2955 80.3214 19.2955C79.8875 19.2955 79.512 19.4032 79.195 19.6186C78.8811 19.831 78.6395 20.108 78.4702 20.4496C78.3009 20.7912 78.2163 21.1574 78.2163 21.5483V22.1761C78.2163 22.7116 78.3086 23.1656 78.4933 23.538C78.681 23.9073 78.9411 24.1889 79.2735 24.3828C79.6059 24.5736 79.9921 24.669 80.4322 24.669C80.7184 24.669 80.977 24.629 81.2078 24.549C81.4417 24.4659 81.6433 24.3428 81.8125 24.1797C81.9818 24.0135 82.1126 23.8073 82.2049 23.5611L83.2575 23.8565C83.1467 24.2135 82.9605 24.5275 82.6989 24.7983C82.4373 25.0661 82.1141 25.2753 81.7294 25.4261C81.3447 25.5739 80.9123 25.6477 80.4322 25.6477ZM87.7032 25.6477C87.1122 25.6477 86.5906 25.4985 86.1382 25.1999C85.6858 24.8983 85.3318 24.4736 85.0764 23.9258C84.8209 23.3749 84.6932 22.724 84.6932 21.973C84.6932 21.2282 84.8209 20.5819 85.0764 20.0341C85.3318 19.4863 85.6873 19.0631 86.1428 18.7646C86.5983 18.466 87.1246 18.3168 87.7216 18.3168C88.1833 18.3168 88.548 18.3937 88.8157 18.5476C89.0866 18.6984 89.2928 18.8707 89.4343 19.0646C89.579 19.2554 89.6913 19.4124 89.7713 19.5355H89.8637V16.0455H90.9532V25.5H89.9006V24.4105H89.7713C89.6913 24.5398 89.5774 24.7029 89.4297 24.8999C89.282 25.0937 89.0712 25.2676 88.7973 25.4215C88.5234 25.5723 88.1587 25.6477 87.7032 25.6477ZM87.8509 24.669C88.2879 24.669 88.6572 24.5552 88.9588 24.3274C89.2605 24.0966 89.4897 23.7781 89.6467 23.3718C89.8037 22.9625 89.8821 22.4901 89.8821 21.9545C89.8821 21.4252 89.8052 20.962 89.6513 20.565C89.4974 20.1649 89.2697 19.854 88.9681 19.6325C88.6665 19.4078 88.2941 19.2955 87.8509 19.2955C87.3892 19.2955 87.0045 19.4139 86.6968 19.6509C86.3921 19.8848 86.1628 20.2034 86.0089 20.6065C85.8581 21.0066 85.7827 21.456 85.7827 21.9545C85.7827 22.4593 85.8596 22.9179 86.0135 23.3303C86.1705 23.7396 86.4013 24.0658 86.706 24.3089C87.0138 24.549 87.3954 24.669 87.8509 24.669Z" fill="white"/>
</svg>
