<svg width="175" height="81" viewBox="0 0 175 81" fill="none" xmlns="http://www.w3.org/2000/svg">
<path fill-rule="evenodd" clip-rule="evenodd" d="M43.3286 32.3083C41.6146 32.3043 39.9536 32.9024 38.6356 33.9983V32.4799H34.3547V49.155H38.8072V38.495C39.2858 37.8728 39.8967 37.3648 40.5957 37.0078C41.2947 36.6508 42.0644 36.4536 42.8489 36.4306C43.4563 36.3994 44.0637 36.4905 44.6351 36.6984V32.4227C44.2037 32.347 43.7666 32.3087 43.3286 32.3083Z" fill="black"/>
<path fill-rule="evenodd" clip-rule="evenodd" d="M4.50804 44.0668C5.7794 45.1418 7.39316 45.7269 9.05804 45.7165C10.2566 45.7165 11.1809 45.1315 11.1809 44.3073C11.1809 41.797 3.13264 42.6914 3.13264 37.3276C3.13264 34.1309 6.21494 32.1367 9.50264 32.1367C11.4991 32.1422 13.4507 32.7295 15.1186 33.8267L13.036 37.052C12.1168 36.3545 11.0043 35.9585 9.85104 35.9184C8.61864 35.9184 7.59034 36.3994 7.59034 37.2587C7.59034 39.4245 15.6399 38.5652 15.6399 44.3411C15.6399 47.5391 12.5199 49.4982 9.02944 49.4982C6.6243 49.4748 4.28749 48.6953 2.35004 47.27L4.50804 44.0668Z" fill="black"/>
<path fill-rule="evenodd" clip-rule="evenodd" d="M32.4541 40.6621C32.4541 36.0211 29.2041 32.1367 24.6099 32.1367C19.6777 32.1367 16.5265 36.1927 16.5265 40.835C16.4776 41.9892 16.6695 43.1409 17.0902 44.2168C17.5108 45.2927 18.1508 46.2692 18.9696 47.0842C19.7883 47.8991 20.7678 48.5346 21.8457 48.9503C22.9235 49.3659 24.0761 49.5525 25.23 49.4982C26.5137 49.5151 27.7861 49.257 28.9617 48.7413C30.1374 48.2255 31.189 47.4641 32.0459 46.5082L29.5109 43.9641C28.98 44.5499 28.3363 45.0223 27.6183 45.3532C26.9003 45.684 26.1229 45.8664 25.3327 45.8894C24.2224 45.9255 23.14 45.5372 22.3058 44.8035C21.4717 44.0698 20.9484 43.0459 20.8425 41.94H32.3514C32.4223 41.5178 32.4566 41.0902 32.4541 40.6621ZM21.0479 38.6692C21.2077 37.8432 21.6511 37.0989 22.3016 36.5653C22.952 36.0316 23.7686 35.7421 24.6099 35.7468C25.4205 35.748 26.2026 36.046 26.8085 36.5844C27.4145 37.1228 27.8024 37.8644 27.8989 38.6692H21.0479Z" fill="black"/>
<path fill-rule="evenodd" clip-rule="evenodd" d="M55.247 42.6563L59.8022 32.4799H64.4276L56.7888 49.155H53.7065L46.0677 32.4799H50.6918L55.247 42.6563Z" fill="black"/>
<path fill-rule="evenodd" clip-rule="evenodd" d="M68.1664 24.65C68.7297 24.6602 69.2775 24.8366 69.7409 25.1571C70.2043 25.4775 70.5628 25.9277 70.7713 26.4511C70.9798 26.9745 71.0291 27.5478 70.913 28.0992C70.7968 28.6505 70.5204 29.1552 70.1184 29.55C69.7164 29.9448 69.2068 30.2121 68.6535 30.3183C68.1002 30.4245 67.5278 30.3649 67.0082 30.147C66.4887 29.929 66.045 29.5625 65.733 29.0934C65.421 28.6243 65.2545 28.0734 65.2544 27.51C65.2543 27.13 65.33 26.7538 65.477 26.4034C65.6239 26.053 65.8393 25.7353 66.1104 25.4691C66.3815 25.2028 66.7029 24.9932 67.0559 24.8526C67.409 24.712 67.7865 24.6431 68.1664 24.65Z" fill="black"/>
<path d="M70.392 32.4799H65.9395V49.155H70.392V32.4799Z" fill="black"/>
<path fill-rule="evenodd" clip-rule="evenodd" d="M88.8 45.7503C87.9569 46.9557 86.8249 47.9304 85.5076 48.5851C84.1904 49.2399 82.73 49.5538 81.26 49.4982C80.1 49.5276 78.9459 49.3243 77.8659 48.9001C76.7858 48.476 75.8017 47.8398 74.9717 47.0289C74.1417 46.2181 73.4826 45.2491 73.0333 44.1793C72.584 43.1095 72.3537 41.9604 72.356 40.8001C72.3582 39.6397 72.593 38.4916 73.0464 37.4235C73.4999 36.3555 74.1627 35.3891 74.9959 34.5815C75.8291 33.7739 76.8157 33.1415 77.8974 32.7216C78.9791 32.3017 80.134 32.1028 81.2938 32.1367C82.6351 32.1267 83.961 32.4217 85.1715 32.9993C86.382 33.577 87.4454 34.4223 88.2813 35.4712L85.1301 38.2558C84.6907 37.6471 84.1148 37.1497 83.4487 36.8034C82.7825 36.4571 82.0445 36.2715 81.2938 36.2616C80.6969 36.2592 80.1056 36.3765 79.5548 36.6066C79.004 36.8368 78.505 37.1751 78.0873 37.6015C77.6696 38.0279 77.3417 38.5338 77.123 39.0892C76.9043 39.6446 76.7992 40.2383 76.814 40.835C76.7943 41.4407 76.8999 42.0439 77.1243 42.6069C77.3487 43.1698 77.687 43.6803 78.118 44.1063C78.549 44.5323 79.0634 44.8647 79.6289 45.0825C80.1945 45.3003 80.7989 45.3988 81.4043 45.372C82.1955 45.3563 82.9709 45.1477 83.6632 44.7644C84.3555 44.3811 84.9438 43.8346 85.3771 43.1724L88.8 45.7503Z" fill="black"/>
<path fill-rule="evenodd" clip-rule="evenodd" d="M104.975 46.5069C104.118 47.4629 103.066 48.2244 101.89 48.7401C100.715 49.2558 99.4424 49.5139 98.1587 49.4969C97.0051 49.5506 95.8529 49.3636 94.7756 48.9477C93.6982 48.5319 92.7192 47.8963 91.9009 47.0814C91.0826 46.2665 90.4428 45.2901 90.0225 44.2145C89.6021 43.1389 89.4102 41.9875 89.4591 40.8337C89.4591 36.1914 92.6103 32.1354 97.5425 32.1354C102.132 32.1354 105.385 36.0198 105.385 40.6608C105.388 41.0872 105.354 41.5131 105.283 41.9335H93.7738C93.8787 43.0396 94.4012 44.0642 95.2349 44.7986C96.0687 45.5331 97.1509 45.9222 98.2614 45.8868C99.0518 45.8636 99.8293 45.6811 100.547 45.3503C101.266 45.0195 101.91 44.5471 102.441 43.9615L104.975 46.5069ZM100.83 38.6692C100.734 37.8645 100.346 37.1229 99.7406 36.5845C99.1349 36.046 98.353 35.7481 97.5425 35.7468C96.7011 35.7419 95.8845 36.0313 95.234 36.565C94.5835 37.0987 94.14 37.843 93.9805 38.6692H100.83Z" fill="black"/>
<path fill-rule="evenodd" clip-rule="evenodd" d="M107.156 49.155V32.4799H111.437V33.8202C112.755 32.7269 114.416 32.1311 116.129 32.1367C117.226 32.1336 118.311 32.3723 119.305 32.8359C120.3 33.2994 121.18 33.9763 121.884 34.8186C123.164 36.4866 123.775 38.5733 123.596 40.6686V49.155H119.143V40.315C119.206 39.753 119.15 39.1841 118.979 38.6451C118.808 38.1061 118.525 37.609 118.15 37.1859C117.472 36.5585 116.573 36.2248 115.65 36.2577C114.866 36.2808 114.096 36.4779 113.397 36.8347C112.698 37.1915 112.087 37.6991 111.608 38.3208V49.155H107.156Z" fill="black"/>
<path fill-rule="evenodd" clip-rule="evenodd" d="M135.062 32.1367C133.108 32.1326 131.198 32.7155 129.58 33.8098C127.962 34.904 126.709 36.4592 125.986 38.2737C125.262 40.0882 125.1 42.0783 125.52 43.986C125.941 45.8938 126.925 47.6312 128.345 48.973C128.678 49.2901 129.113 49.4776 129.573 49.5014C130.032 49.5252 130.484 49.3839 130.848 49.103C132.05 48.209 133.507 47.7262 135.005 47.7262C136.502 47.7262 137.959 48.209 139.161 49.103C139.528 49.3846 139.985 49.5246 140.447 49.4977C140.909 49.4707 141.346 49.2785 141.679 48.9561C143.088 47.6193 144.065 45.8922 144.486 43.9963C144.907 42.1003 144.752 40.1219 144.041 38.3146C143.33 36.5073 142.095 34.9535 140.496 33.8524C138.896 32.7512 137.004 32.1529 135.062 32.1341M135.005 46.75C134.363 46.7674 133.724 46.6537 133.127 46.416C132.53 46.1783 131.988 45.8215 131.534 45.3673C131.08 44.9132 130.723 44.3713 130.485 43.7747C130.247 43.178 130.133 42.5392 130.15 41.8971C130.15 40.6097 130.662 39.375 131.572 38.4647C132.482 37.5543 133.717 37.0429 135.005 37.0429C136.292 37.0429 137.527 37.5543 138.437 38.4647C139.347 39.375 139.859 40.6097 139.859 41.8971C139.876 42.5392 139.762 43.178 139.524 43.7747C139.286 44.3713 138.929 44.9132 138.475 45.3673C138.021 45.8215 137.479 46.1783 136.882 46.416C136.286 46.6537 135.647 46.7674 135.005 46.75Z" fill="#62D84E"/>
<path fill-rule="evenodd" clip-rule="evenodd" d="M153.524 49.155H150.208L143.595 32.4799H148.041L151.667 42.0089L155.222 32.4799H158.938L162.461 42.0089L166.118 32.4799H170.565L163.952 49.155H160.635L157.08 39.6598L153.524 49.155Z" fill="black"/>
<path d="M170.615 47.27H170.24V47.9759H169.92V46.0441H170.7C170.782 46.0438 170.863 46.0596 170.938 46.0907C171.014 46.1218 171.082 46.1676 171.14 46.2253C171.198 46.2831 171.244 46.3517 171.275 46.4273C171.306 46.5028 171.322 46.5838 171.321 46.6655C171.32 46.7866 171.284 46.9047 171.215 47.0047C171.147 47.1048 171.05 47.1822 170.938 47.2271L171.377 47.9798H171.029L170.615 47.27ZM170.24 46.9853H170.7C170.786 46.9853 170.869 46.9511 170.93 46.8901C170.991 46.8292 171.025 46.7465 171.025 46.6603C171.025 46.5741 170.991 46.4914 170.93 46.4305C170.869 46.3695 170.786 46.3353 170.7 46.3353H170.244L170.24 46.9853Z" fill="black"/>
<path d="M170.57 45.2524C170.925 45.2521 171.271 45.3571 171.566 45.5539C171.861 45.7507 172.091 46.0306 172.227 46.3582C172.363 46.6857 172.399 47.0462 172.33 47.394C172.261 47.7419 172.09 48.0614 171.839 48.3123C171.589 48.5631 171.269 48.734 170.921 48.8033C170.574 48.8725 170.213 48.8371 169.886 48.7015C169.558 48.5658 169.278 48.336 169.081 48.0412C168.884 47.7464 168.779 47.3997 168.779 47.0451C168.779 46.5701 168.968 46.1147 169.304 45.7787C169.64 45.4427 170.095 45.2534 170.57 45.2524ZM170.57 44.969C170.159 44.969 169.756 45.091 169.414 45.3195C169.072 45.5481 168.806 45.8729 168.648 46.253C168.491 46.6331 168.45 47.0513 168.53 47.4548C168.61 47.8583 168.808 48.2289 169.099 48.5198C169.39 48.8107 169.761 49.0088 170.164 49.089C170.568 49.1693 170.986 49.1281 171.366 48.9707C171.746 48.8132 172.071 48.5466 172.299 48.2046C172.528 47.8625 172.65 47.4604 172.65 47.049C172.65 46.4973 172.431 45.9683 172.041 45.5782C171.651 45.1881 171.122 44.969 170.57 44.969Z" fill="black"/>
</svg>
